<svg id="instagram" xmlns="http://www.w3.org/2000/svg" width="40.335" height="40.335" viewBox="0 0 40.335 40.335">
  <defs>
    <style>
      .cls-1 {
        fill: #66667e;
      }
    </style>
  </defs>
  <path id="Path_383" data-name="Path 383" class="cls-1" d="M20.167,0A20.167,20.167,0,1,0,40.335,20.167,20.19,20.19,0,0,0,20.167,0Zm0,38.028a17.86,17.86,0,1,1,17.86-17.86A17.88,17.88,0,0,1,20.167,38.028Z"/>
  <path id="Path_384" data-name="Path 384" class="cls-1" d="M98.158,80.326H83.47a2.438,2.438,0,0,0-2.436,2.436v14.87a2.438,2.438,0,0,0,2.436,2.436H98.158a2.438,2.438,0,0,0,2.436-2.436V82.762A2.438,2.438,0,0,0,98.158,80.326Zm.128,17.306a.128.128,0,0,1-.128.128H83.47a.128.128,0,0,1-.128-.128V82.762a.128.128,0,0,1,.128-.128H98.158a.128.128,0,0,1,.128.128Z" transform="translate(-70.646 -70.029)"/>
</svg>
