<svg xmlns="http://www.w3.org/2000/svg" xmlns:xlink="http://www.w3.org/1999/xlink" width="345" height="365" viewBox="0 0 345 365">
  <defs>
    <style>
      .cls-1 {
        fill: #20202c;
      }

      .cls-2 {
        fill: #00ec98;
      }

      .cls-3, .cls-6 {
        fill: #66667e;
      }

      .cls-4 {
        fill: #39394d;
        opacity: 0.23;
      }

      .cls-5 {
        fill: #fff;
        font-size: 17px;
      }

      .cls-5, .cls-6 {
        font-family: Muli-Regular, Muli;
      }

      .cls-6 {
        font-size: 13px;
      }

      .cls-7 {
        filter: url(#Ellipse_21);
      }

      .cls-8 {
        filter: url(#Rectangle_2227);
      }
    </style>
    <filter id="Rectangle_2227" x="0" y="0" width="345" height="365" filterUnits="userSpaceOnUse">
      <feOffset input="SourceAlpha"/>
      <feGaussianBlur stdDeviation="20" result="blur"/>
      <feFlood flood-opacity="0.541"/>
      <feComposite operator="in" in2="blur"/>
      <feComposite in="SourceGraphic"/>
    </filter>
    <filter id="Ellipse_21" x="229" y="68" width="40" height="40" filterUnits="userSpaceOnUse">
      <feOffset input="SourceAlpha"/>
      <feGaussianBlur stdDeviation="5" result="blur-2"/>
      <feFlood flood-color="#2eff74" flood-opacity="0.608"/>
      <feComposite operator="in" in2="blur-2"/>
      <feComposite in="SourceGraphic"/>
    </filter>
  </defs>
  <g id="Group_2375" data-name="Group 2375" transform="translate(19 -3854)">
    <g class="cls-8" transform="matrix(1, 0, 0, 1, -19, 3854)">
      <rect id="Rectangle_2227-2" data-name="Rectangle 2227" class="cls-1" width="225" height="245" rx="7" transform="translate(60 60)"/>
    </g>
    <g class="cls-7" transform="matrix(1, 0, 0, 1, -19, 3854)">
      <circle id="Ellipse_21-2" data-name="Ellipse 21" class="cls-2" cx="5" cy="5" r="5" transform="translate(244 83)"/>
    </g>
    <g id="air-conditioner_1_" data-name="air-conditioner (1)" transform="translate(72.08 3942.054)">
      <path id="Path_48" data-name="Path 48" class="cls-2" d="M67.738.5H6.158A6.165,6.165,0,0,0,0,6.658V26.364a6.165,6.165,0,0,0,6.158,6.158h61.58A6.165,6.165,0,0,0,73.9,26.364V6.658A6.165,6.165,0,0,0,67.738.5ZM62.812,30.059H11.084V26.364a1.232,1.232,0,0,1,1.232-1.232H61.58a1.232,1.232,0,0,1,1.232,1.232Zm8.621-3.695a3.7,3.7,0,0,1-3.695,3.695H65.275V26.364a3.7,3.7,0,0,0-3.695-3.695H12.316a3.7,3.7,0,0,0-3.695,3.695v3.695H6.158a3.7,3.7,0,0,1-3.695-3.695V6.658A3.7,3.7,0,0,1,6.158,2.963h61.58a3.7,3.7,0,0,1,3.695,3.695Zm0,0" transform="translate(0 -0.5)"/>
      <path id="Path_59" data-name="Path 59" class="cls-2" d="M336,48.5h12.316v2.463H336Zm0,0" transform="translate(-284.272 -41.11)"/>
      <path id="Path_60" data-name="Path 60" class="cls-2" d="M304,48.5h2.463v2.463H304Zm0,0" transform="translate(-257.199 -41.11)"/>
    </g>
    <g id="power" transform="translate(73.993 4095.922)">
      <g id="Group_4" data-name="Group 4" transform="translate(0)">
        <g id="Group_3" data-name="Group 3">
          <path id="Path_19" data-name="Path 19" class="cls-3" d="M47.242,72.045s-1.37-.616-1.37.824a3.268,3.268,0,0,0,1.374,2.4,8.764,8.764,0,0,1-4.561,16.1,8.764,8.764,0,0,1-4.561-16.1,3.268,3.268,0,0,0,1.374-2.4c0-1.44-1.37-.824-1.37-.824a11.6,11.6,0,0,0,4.556,22.167,11.6,11.6,0,0,0,4.556-22.167Z" transform="translate(-31.31 -68.408)"/>
          <path id="Path_20" data-name="Path 20" class="cls-3" d="M233.639,0a1.519,1.519,0,0,0-1.673,1.3V12.722a1.519,1.519,0,0,0,1.673,1.3,1.343,1.343,0,0,0,1.514-1.3V1.3A1.343,1.343,0,0,0,233.639,0Z" transform="translate(-222.183)"/>
        </g>
      </g>
    </g>
    <rect id="Rectangle_2228" data-name="Rectangle 2228" class="cls-4" width="225" height="75" transform="translate(41 4002)"/>
    <text id="Air_Conditioner" data-name="Air Conditioner" class="cls-5" transform="translate(73.742 4035.098)"><tspan x="0" y="0">Air Conditioner</tspan></text>
    <text id="On_for_last_3_Hrs" data-name="On for last 3 Hrs" class="cls-6" transform="translate(73.742 4058.61)"><tspan x="0" y="0">On for last 3 Hrs</tspan></text>
  </g>
</svg>
