<svg xmlns="http://www.w3.org/2000/svg" width="224.663" height="240.389" viewBox="0 0 224.663 240.389">
  <defs>
    <style>
      .cls-1 {
        fill: #262634;
      }
    </style>
  </defs>
  <g id="light-bulb-on" transform="translate(0)">
    <path id="Path_47" data-name="Path 47" class="cls-1" d="M176.343,27.667l6.43-10.808a5.359,5.359,0,0,1,9.349,5.242l-6.43,10.808a5.233,5.233,0,0,1-4.674,2.621,8.359,8.359,0,0,1-2.621-.594A5.243,5.243,0,0,1,176.343,27.667ZM81.8,32.936a5.233,5.233,0,0,0,4.674,2.621,8.364,8.364,0,0,0,2.621-.594,5.308,5.308,0,0,0,2.053-7.3L84.722,16.86A5.359,5.359,0,1,0,75.373,22.1Zm51.931-9.916a5.212,5.212,0,0,0,5.242-5.242V5.242a5.242,5.242,0,0,0-10.483,0V17.778C128.195,20.67,130.519,23.02,133.734,23.02Zm-94.54,83.732H26.658a5.242,5.242,0,0,0,0,10.483H39.194a5.242,5.242,0,1,0,0-10.483Zm201.643,0H228.3a5.242,5.242,0,0,0,0,10.483h12.537a5.242,5.242,0,0,0,0-10.483Zm-9.646-50.769a5.308,5.308,0,0,0-7.3-2.053l-10.808,6.43a5.309,5.309,0,0,0-2.053,7.3,5.233,5.233,0,0,0,4.674,2.621,8.359,8.359,0,0,0,2.621-.594l10.808-6.43A5.249,5.249,0,0,0,231.192,55.984Zm-28.586,55.443a70.3,70.3,0,0,1-9.052,34.152,5.1,5.1,0,0,1-1.162,2.053l-.594.865a62.547,62.547,0,0,1-7.593,9.916c-10.213,14.293-15.455,26.56-15.185,34.422v.3c0,.594.3,1.459.3,2.324v25.1a19.862,19.862,0,0,1-19.832,19.832H117.118a19.862,19.862,0,0,1-19.832-19.832V192.836c.3-7.592-4.971-19.562-14.59-33.558a57.815,57.815,0,0,1-8.754-11.672c-.3-.594-.594-.865-.865-1.459a68.556,68.556,0,0,1-9.349-34.422,69.608,69.608,0,0,1,69.439-69.439C171.372,41.988,202.606,73.195,202.606,111.427Zm-44.068,86.947H108.066v9.916h50.471v-9.916Zm0,22.777V219.1H108.066v2.053a9.142,9.142,0,0,0,9.051,8.16h32.4A9.116,9.116,0,0,0,158.537,221.151ZM191.8,111.427a58.658,58.658,0,1,0-117.317,0,59.414,59.414,0,0,0,8.16,29.775h0v.3a70.71,70.71,0,0,0,7.89,10.511l.594.594q14.428,20.588,16.644,35.017h51.066c1.756-11.97,9.916-25.668,17.211-35.881,0-.3.3-.3.594-.594a39.7,39.7,0,0,0,6.7-9.052c0-.3.3-.3.3-.594s.3-.3.3-.594A57.267,57.267,0,0,0,191.8,111.427ZM54.379,60.361,43.572,53.93a5.359,5.359,0,0,0-5.242,9.349l10.808,6.43a4.257,4.257,0,0,0,2.621.594,5.263,5.263,0,0,0,4.674-2.621A5.356,5.356,0,0,0,54.379,60.361Z" transform="translate(-21.416 0)"/>
  </g>
</svg>
